<svg width="1600" height="900" viewBox="0 0 1600 900" xmlns="http://www.w3.org/2000/svg">
  <defs>
    <linearGradient id="bg" x1="0" y1="0" x2="1" y2="1">
      <stop offset="0%" stop-color="#f8f1e2"/>
      <stop offset="100%" stop-color="#efe3cd"/>
    </linearGradient>
    <linearGradient id="card" x1="0" y1="0" x2="0" y2="1">
      <stop offset="0%" stop-color="#fff8eb"/>
      <stop offset="100%" stop-color="#f3e8d3"/>
    </linearGradient>
  </defs>
  <rect width="1600" height="900" fill="url(#bg)"/>
  <circle cx="1320" cy="170" r="190" fill="#e7d7bc" opacity="0.5"/>
  <circle cx="220" cy="730" r="160" fill="#e7d7bc" opacity="0.45"/>
  <rect x="140" y="120" width="1320" height="660" rx="44" fill="url(#card)" stroke="#d5bd94" stroke-width="4"/>
  <rect x="240" y="220" width="520" height="320" rx="24" fill="#fdf6e8" stroke="#d9c29b" stroke-width="3"/>
  <rect x="280" y="270" width="220" height="16" rx="8" fill="#ccb081"/>
  <rect x="280" y="306" width="360" height="12" rx="6" fill="#dfccb0"/>
  <rect x="280" y="332" width="320" height="12" rx="6" fill="#dfccb0"/>
  <rect x="280" y="358" width="270" height="12" rx="6" fill="#dfccb0"/>
  <circle cx="620" cy="430" r="84" fill="#f1dfbf" stroke="#c9a870" stroke-width="8"/>
  <circle cx="620" cy="430" r="36" fill="#fff4de"/>
  <g fill="#b8935b">
    <rect x="614" y="334" width="12" height="36" rx="6"/>
    <rect x="614" y="490" width="12" height="36" rx="6"/>
    <rect x="524" y="424" width="36" height="12" rx="6"/>
    <rect x="680" y="424" width="36" height="12" rx="6"/>
  </g>
  <rect x="860" y="220" width="500" height="320" rx="24" fill="#fff6e7" stroke="#d9c29b" stroke-width="3"/>
  <rect x="910" y="280" width="170" height="170" rx="22" fill="#f0dec0"/>
  <rect x="1140" y="280" width="170" height="170" rx="22" fill="#f0dec0"/>
  <circle cx="995" cy="365" r="44" fill="#dbc19a"/>
  <circle cx="1225" cy="365" r="44" fill="#dbc19a"/>
  <rect x="920" y="500" width="380" height="10" rx="5" fill="#dcc8a9"/>
  <rect x="860" y="590" width="500" height="150" rx="26" fill="#f7ecd8" stroke="#d9c29b" stroke-width="3"/>
  <text x="1110" y="655" text-anchor="middle" font-family="Georgia, serif" font-size="58" fill="#5a3a2f" font-weight="700">Our Vision</text>
  <text x="1110" y="700" text-anchor="middle" font-family="Georgia, serif" font-size="30" fill="#8b6e56">Future-focused professional immersion</text>
</svg>
